<?xml version="1.0" encoding="UTF-8"?><svg id="Layer_1" xmlns="http://www.w3.org/2000/svg" viewBox="0 0 537.17 198.9"><path d="m6.55,82.84c-3.95,0-6.55-2.37-6.55-6.55,0-1.69.45-3.5,1.24-5.64l14.56-36.34H3.39l1.58-5.76h12.64l6.32-19.3,7.45-1.81-8.58,21.11h14.67l-1.58,5.76h-15.12l-12.75,35.55c-.56,1.47-.79,2.48-.79,3.27,0,2.14,1.13,3.16,3.5,3.16,3.61,0,8.24-4.63,13.66-12.19l1.69,1.24c-5.3,8.92-12.08,17.49-19.53,17.49Zm58.24.34c-3.95,0-5.98-2.26-5.98-5.87,0-1.69.56-3.61,1.58-5.98l12.87-27.54c1.02-2.03,1.47-3.84,1.47-5.53,0-2.82-1.35-4.29-4.18-4.29-3.5,0-8.01,3.05-12.08,7.11-8.47,8.47-12.64,16.37-18.06,33.3l-2.26,7.22h-6.77L52.6,12.53c.56-1.81.79-3.16.79-3.95,0-1.47-.56-2.6-2.37-2.6-.9,0-1.69.11-2.48.23l-9.03,1.58.68-2.14L60.16,1.47h2.93c-1.24,2.93-3.5,9.59-4.97,13.77l-12.64,38.49h.56c6.66-12.64,18.85-25.73,28.44-25.73,4.85,0,7.22,2.82,7.22,7,0,2.14-.56,4.63-1.81,7.22l-12.53,28.33c-.68,1.47-1.02,2.71-1.02,3.72,0,1.69.79,2.6,2.48,2.6,3.27,0,7.79-4.97,11.74-12.19l1.92.9c-5.08,9.93-11.63,17.61-17.72,17.61Zm35.75-.34c-8.01,0-12.3-5.42-12.3-15.01,0-19.3,16.03-40.52,30.59-40.52,5.98,0,9.03,3.72,9.03,8.58,0,11.29-12.19,19.19-26.86,19.19-1.92,0-3.72-.11-5.64-.45-.9,3.5-1.47,7-1.47,10.05,0,7.56,3.72,11.06,8.8,11.06,6.32,0,11.96-5.42,15.01-12.75l1.92.79c-2.37,6.77-8.47,19.07-19.08,19.07Zm-.34-30.7c14.67,0,20.77-6.55,20.77-14.11,0-3.5-2.03-5.3-5.98-5.3-8.47,0-15.12,9.26-18.74,19.19,1.35.11,2.71.23,3.95.23ZM262.29,6.88c-5.76,0-8.01,3.05-10.72,11.4l-21.22,63.32h-6.32l-18.17-52.14-17.95,52.14h-5.98l-22.91-65.35c-2.71-7.45-5.3-9.37-11.06-9.37v-3.39h31.83v3.39h-4.18c-3.61,0-5.98,1.58-5.98,5.3,0,1.24.45,3.05,1.24,5.3l16.7,47.74,15.35-44.24-2.26-6.43c-2.15-5.98-5.42-7.67-10.72-7.67v-3.39h32.17v3.39h-3.5c-4.4,0-7.11,1.58-7.11,5.3,0,1.35.45,3.05,1.24,5.19l16.82,49.32,15.69-48.08c.79-2.14,1.13-4.18,1.13-5.87,0-4.18-2.37-5.87-7.22-5.87h-4.29v-3.39h27.43v3.39Zm19.44,76.3c-14.45,0-26.75-11.96-26.75-28.22s12.3-28.22,26.75-28.22,26.75,11.85,26.75,28.22-12.3,28.22-26.75,28.22Zm0-5.19c9.59,0,15.58-9.48,15.58-23.02s-6.1-23.02-15.58-23.02-15.58,9.48-15.58,23.02,5.98,23.02,15.58,23.02Zm62.1-50.34c5.08,0,8.01,2.71,8.01,6.66,0,3.27-2.37,5.64-5.64,5.64-4.29,0-4.29-3.16-8.58-3.16-3.73,0-7.45,3.16-7.45,11.63v23.02c0,4.63,1.92,6.77,7,6.77h3.39v3.39h-28.44v-3.39h1.24c5.76,0,7.22-1.92,7.22-6.77v-30.47c0-4.85-1.81-6.32-6.32-6.32h-3.27v-3.05c4.29-.9,13.09-3.16,16.59-4.29h2.6v10.27h.45c1.58-4.63,6.32-9.93,13.2-9.93Zm9.22,50.56c5.76,0,7.34-2.14,7.34-7V13.09c0-4.4-1.81-5.98-5.76-5.98-1.35,0-2.93.23-5.19.56v-3.16c5.08-.9,14.9-3.27,17.83-4.51h2.71v71.22c0,4.85,1.58,7,7,7h1.69v3.39h-26.98v-3.39h1.35Zm66.26,4.4v-9.48h-.56c-2.6,5.76-7.56,9.37-14.79,9.37-13.21,0-22.8-11.85-22.8-26.86,0-19.86,13.99-28.78,25.85-28.78,5.53,0,10.05,1.47,12.3,3.61V13.09c0-4.4-1.69-5.98-5.42-5.98-.56,0-1.69.11-3.61.34l-3.39.34v-3.16c5.42-.9,16.03-3.39,19.3-4.63h2.71v70.77c0,4.97,2.82,6.32,5.98,6.32.79,0,1.13,0,2.48-.11v3.27l-18.06,2.37Zm-11.4-9.03c5.31,0,9.03-1.69,11.4-5.19v-24.49c0-7.22-3.73-12.19-11.85-12.19s-17.16,6.09-17.16,20.54c0,11.74,6.66,21.33,17.61,21.33Z" stroke-width="0"/><path d="m111.75,176.78c-8.01,0-13.43-4.97-13.43-14.45,0-16.37,13.54-41.2,33.75-41.2,8.13,0,13.43,5.42,13.43,14.11,0,17.04-14.56,41.54-33.75,41.54Zm-.23-3.84c14.56,0,28.56-27.88,28.56-39.39,0-5.42-2.26-8.46-7.56-8.46-13.54,0-28.67,26.75-28.67,39.39,0,5.87,3.05,8.46,7.68,8.46Zm27.62,25.96c-6.43,0-10.84-3.73-10.84-6.77,0-1.92,1.02-3.39,3.27-3.39,1.24,0,2.48.79,3.61,2.37,1.69,2.14,3.27,4.18,6.32,4.18,2.82,0,5.3-1.58,7-5.98,1.69-4.06,2.26-10.95,3.61-16.82l10.27-44.24h-12.3l.56-2.14,12.75-2.82,1.47-8.24c2.26-13.21,9.26-21.11,19.75-21.11,7.22,0,10.38,2.37,10.38,4.97,0,1.69-1.02,3.16-3.16,3.16-4.06,0-4.52-3.95-10.5-3.95-8.69,0-11.74,8.35-11.74,18.17,0,2.26,0,4.51.34,6.21h14.9l-1.58,5.76h-14.33l-10.95,46.5c-4.06,17.16-9.93,24.15-18.85,24.15Zm71.98-22.12c-3.95,0-6.55-2.37-6.55-6.55,0-1.69.45-3.5,1.24-5.64l14.56-36.34h-12.41l1.58-5.76h12.64l6.32-19.3,7.45-1.81-8.58,21.11h14.67l-1.58,5.76h-15.12l-12.75,35.55c-.56,1.47-.79,2.48-.79,3.27,0,2.15,1.13,3.16,3.5,3.16,3.61,0,8.24-4.63,13.66-12.19l1.69,1.24c-5.31,8.92-12.08,17.49-19.53,17.49Zm58.24.34c-3.95,0-5.98-2.26-5.98-5.87,0-1.69.57-3.61,1.58-5.98l12.87-27.54c1.02-2.03,1.47-3.84,1.47-5.53,0-2.82-1.35-4.29-4.18-4.29-3.5,0-8.01,3.05-12.08,7.11-8.46,8.47-12.64,16.37-18.06,33.3l-2.26,7.22h-6.77l21.22-69.07c.56-1.81.79-3.16.79-3.95,0-1.47-.57-2.6-2.37-2.6-.9,0-1.69.11-2.48.23l-9.03,1.58.68-2.14,19.98-4.18h2.93c-1.24,2.93-3.5,9.59-4.97,13.77l-12.64,38.49h.56c6.66-12.64,18.85-25.73,28.44-25.73,4.85,0,7.22,2.82,7.22,7,0,2.15-.56,4.63-1.81,7.22l-12.53,28.33c-.68,1.47-1.02,2.71-1.02,3.72,0,1.69.79,2.6,2.48,2.6,3.27,0,7.79-4.97,11.74-12.19l1.92.9c-5.08,9.93-11.62,17.61-17.72,17.61Zm35.75-.34c-8.01,0-12.3-5.42-12.3-15.01,0-19.3,16.03-40.52,30.59-40.52,5.98,0,9.03,3.72,9.03,8.58,0,11.29-12.19,19.19-26.86,19.19-1.92,0-3.72-.11-5.64-.45-.9,3.5-1.47,7-1.47,10.04,0,7.56,3.72,11.06,8.8,11.06,6.32,0,11.96-5.42,15.01-12.75l1.92.79c-2.37,6.77-8.46,19.07-19.07,19.07Zm-.34-30.7c14.67,0,20.77-6.55,20.77-14.11,0-3.5-2.03-5.31-5.98-5.31-8.46,0-15.12,9.25-18.74,19.19,1.35.11,2.71.23,3.95.23Zm94.35,31.04c-24.04,0-42.21-17.15-42.21-39.16,0-26.07,20.32-41.87,44.36-41.87,13.2,0,21.11,2.48,25.96,4.29v22.35h-4.06c0-8.58-3.84-21.11-22.8-21.11s-31.04,12.53-31.04,33.07c0,22.01,13.77,36.46,31.6,36.46,11.4,0,14.33-4.51,14.33-11.29v-7.45c0-5.08-1.13-8.35-9.26-8.35h-4.74v-3.84h32.28v3.84c-7.68,0-8.35,2.03-8.35,6.21v14.56h7.68v2.48c-7.68,5.87-18.74,9.82-33.75,9.82Zm42.74-4.97c7.56,0,8.47-3.61,8.47-8.58v-54.4c0-4.97-.79-8.35-8.47-8.35h-2.14v-3.39h35.89c15.91,0,24.72,8.01,24.72,20.32,0,14.11-11.85,22.57-27.77,22.57-5.53,0-9.59-.57-11.29-1.13v24.6c0,5.08,2.03,8.35,9.71,8.35h3.39v3.39h-34.65v-3.39h2.14Zm28.44-36.79c11.74,0,18.17-5.87,18.17-16.82,0-9.93-5.87-16.25-16.37-16.25h-2.03c-6.43,0-8.8,1.81-8.8,8.01v23.93c1.69.56,4.85,1.13,9.03,1.13Zm37.18,36.79c7.34,0,8.13-3.84,8.13-8.8v-53.84c0-5.08-.79-8.69-8.13-8.69h-2.48v-3.39h32.17v3.39h-2.37c-7.22,0-8.24,3.61-8.24,8.69v53.84c0,4.97,1.02,8.8,8.24,8.8h2.37v3.39h-32.17v-3.39h2.48Z" stroke-width="0"/></svg>